<mxfile host="app.diagrams.net" modified="2021-03-12T20:55:11.302Z" agent="5.0 (Windows NT 10.0; Win64; x64) AppleWebKit/537.36 (KHTML, like Gecko) Chrome/88.0.4324.190 Safari/537.36" etag="T_9OUMmTrPaKOqfBmaEW" version="14.4.3" type="github">
  <diagram id="dJKw4Sf-032qiLhtuMxW" name="Page-1">
    <mxGraphModel dx="920" dy="596" grid="1" gridSize="10" guides="1" tooltips="1" connect="1" arrows="1" fold="1" page="1" pageScale="1" pageWidth="827" pageHeight="1169" math="0" shadow="0">
      <root>
        <mxCell id="0" />
        <mxCell id="1" parent="0" />
        <mxCell id="IwodG1FBrWET3ssHRPOr-1" value="Controller" style="html=1;" vertex="1" parent="1">
          <mxGeometry x="100" y="210" width="110" height="50" as="geometry" />
        </mxCell>
        <mxCell id="IwodG1FBrWET3ssHRPOr-2" value="t: Telepes" style="html=1;" vertex="1" parent="1">
          <mxGeometry x="390" y="30" width="110" height="50" as="geometry" />
        </mxCell>
        <mxCell id="IwodG1FBrWET3ssHRPOr-3" value="a: Aszteroida" style="html=1;" vertex="1" parent="1">
          <mxGeometry x="670" y="210" width="110" height="50" as="geometry" />
        </mxCell>
        <mxCell id="IwodG1FBrWET3ssHRPOr-4" value="p:PÃ¡lya" style="html=1;" vertex="1" parent="1">
          <mxGeometry x="390" y="400" width="110" height="50" as="geometry" />
        </mxCell>
        <mxCell id="IwodG1FBrWET3ssHRPOr-5" value="" style="endArrow=none;html=1;exitX=1;exitY=0.25;exitDx=0;exitDy=0;entryX=0;entryY=0.75;entryDx=0;entryDy=0;" edge="1" parent="1" source="IwodG1FBrWET3ssHRPOr-1" target="IwodG1FBrWET3ssHRPOr-2">
          <mxGeometry width="50" height="50" relative="1" as="geometry">
            <mxPoint x="380" y="290" as="sourcePoint" />
            <mxPoint x="430" y="240" as="targetPoint" />
          </mxGeometry>
        </mxCell>
        <mxCell id="IwodG1FBrWET3ssHRPOr-6" value="" style="endArrow=none;html=1;exitX=1;exitY=0.75;exitDx=0;exitDy=0;entryX=0;entryY=0.25;entryDx=0;entryDy=0;" edge="1" parent="1" source="IwodG1FBrWET3ssHRPOr-1" target="IwodG1FBrWET3ssHRPOr-4">
          <mxGeometry width="50" height="50" relative="1" as="geometry">
            <mxPoint x="210" y="255" as="sourcePoint" />
            <mxPoint x="390" y="105" as="targetPoint" />
          </mxGeometry>
        </mxCell>
        <mxCell id="IwodG1FBrWET3ssHRPOr-9" value="" style="endArrow=none;html=1;exitX=1;exitY=0.5;exitDx=0;exitDy=0;entryX=0;entryY=0.5;entryDx=0;entryDy=0;" edge="1" parent="1" source="IwodG1FBrWET3ssHRPOr-1" target="IwodG1FBrWET3ssHRPOr-3">
          <mxGeometry width="50" height="50" relative="1" as="geometry">
            <mxPoint x="210" y="267.5" as="sourcePoint" />
            <mxPoint x="400" y="422.5" as="targetPoint" />
          </mxGeometry>
        </mxCell>
        <mxCell id="IwodG1FBrWET3ssHRPOr-11" value="3. &amp;lt;&amp;lt;create&amp;gt;&amp;gt; Telepes(a)" style="html=1;verticalAlign=bottom;endArrow=block;" edge="1" parent="1">
          <mxGeometry x="-0.4615" y="11" width="80" relative="1" as="geometry">
            <mxPoint x="250" y="150" as="sourcePoint" />
            <mxPoint x="310" y="100" as="targetPoint" />
            <mxPoint as="offset" />
          </mxGeometry>
        </mxCell>
        <mxCell id="IwodG1FBrWET3ssHRPOr-12" value="2. &amp;lt;&amp;lt;create&amp;gt;&amp;gt;" style="html=1;verticalAlign=bottom;endArrow=block;" edge="1" parent="1">
          <mxGeometry width="80" relative="1" as="geometry">
            <mxPoint x="400" y="220" as="sourcePoint" />
            <mxPoint x="480" y="220" as="targetPoint" />
          </mxGeometry>
        </mxCell>
        <mxCell id="IwodG1FBrWET3ssHRPOr-13" value="1. &amp;lt;&amp;lt;create&amp;gt;&amp;gt;" style="html=1;verticalAlign=bottom;endArrow=block;" edge="1" parent="1">
          <mxGeometry width="80" relative="1" as="geometry">
            <mxPoint x="290" y="290" as="sourcePoint" />
            <mxPoint x="350" y="340" as="targetPoint" />
          </mxGeometry>
        </mxCell>
        <mxCell id="IwodG1FBrWET3ssHRPOr-18" value="" style="endArrow=none;html=1;entryX=1;entryY=0.75;entryDx=0;entryDy=0;exitX=0.25;exitY=0;exitDx=0;exitDy=0;" edge="1" parent="1" source="IwodG1FBrWET3ssHRPOr-3" target="IwodG1FBrWET3ssHRPOr-2">
          <mxGeometry width="50" height="50" relative="1" as="geometry">
            <mxPoint x="560" y="130" as="sourcePoint" />
            <mxPoint x="610" y="80" as="targetPoint" />
          </mxGeometry>
        </mxCell>
        <mxCell id="IwodG1FBrWET3ssHRPOr-19" value="5. MezoBeallit(a)" style="endArrow=classic;html=1;" edge="1" parent="1">
          <mxGeometry width="50" height="50" relative="1" as="geometry">
            <mxPoint x="610" y="180" as="sourcePoint" />
            <mxPoint x="560" y="140" as="targetPoint" />
          </mxGeometry>
        </mxCell>
        <mxCell id="IwodG1FBrWET3ssHRPOr-20" value="4. HajoErkezik()" style="endArrow=classic;html=1;" edge="1" parent="1">
          <mxGeometry width="50" height="50" relative="1" as="geometry">
            <mxPoint x="590" y="100" as="sourcePoint" />
            <mxPoint x="680" y="150" as="targetPoint" />
          </mxGeometry>
        </mxCell>
      </root>
    </mxGraphModel>
  </diagram>
</mxfile>
